<svg xmlns="http://www.w3.org/2000/svg" xmlns:xlink="http://www.w3.org/1999/xlink" width="378" zoomAndPan="magnify" viewBox="0 0 283.5 283.500005" height="378" preserveAspectRatio="xMidYMid meet" version="1.0"><defs><clipPath id="f3ee691db5"><path d="M 19 19 L 264 19 L 264 270 L 19 270 Z M 19 19 " clip-rule="nonzero"/></clipPath><clipPath id="df6055245c"><path d="M -6.898438 55.742188 L 238.289062 0.777344 L 290.597656 234.117188 L 45.40625 289.082031 Z M -6.898438 55.742188 " clip-rule="nonzero"/></clipPath><clipPath id="2b7edef5be"><path d="M 153.167969 19.859375 L 224.238281 50.53125 L 263.660156 117.222656 L 256.476562 194.359375 L 205.386719 252.816406 L 129.75 269.773438 L 58.59375 238.71875 L 19.167969 172.027344 L 26.351562 94.890625 L 77.527344 36.816406 Z M 153.167969 19.859375 " clip-rule="nonzero"/></clipPath><clipPath id="724d2e1f84"><path d="M 0.167969 0.84375 L 244.773438 0.84375 L 244.773438 250.960938 L 0.167969 250.960938 Z M 0.167969 0.84375 " clip-rule="nonzero"/></clipPath><clipPath id="ccec7f1fca"><path d="M -25.898438 36.742188 L 219.289062 -18.222656 L 271.597656 215.117188 L 26.40625 270.082031 Z M -25.898438 36.742188 " clip-rule="nonzero"/></clipPath><clipPath id="9b0ed9927f"><path d="M 134.167969 0.859375 L 205.238281 31.53125 L 244.660156 98.222656 L 237.476562 175.359375 L 186.386719 233.816406 L 110.75 250.773438 L 39.59375 219.71875 L 0.167969 153.027344 L 7.351562 75.890625 L 58.527344 17.816406 Z M 134.167969 0.859375 " clip-rule="nonzero"/></clipPath><clipPath id="e59466c561"><rect x="0" width="245" y="0" height="251"/></clipPath><clipPath id="e4869343c4"><rect x="0" width="283" y="0" height="282"/></clipPath></defs><g transform="matrix(1, 0, 0, 1, 0, 1)"><g clip-path="url(#e4869343c4)"><g clip-path="url(#f3ee691db5)"><g clip-path="url(#df6055245c)"><g clip-path="url(#2b7edef5be)"><g transform="matrix(1, 0, 0, 1, 19, 19)"><g clip-path="url(#e59466c561)"><g clip-path="url(#724d2e1f84)"><g clip-path="url(#ccec7f1fca)"><g clip-path="url(#9b0ed9927f)"><path fill="#615b5b" d="M -25.898438 36.742188 L 218.378906 -18.015625 L 270.683594 215.324219 L 26.40625 270.082031 Z M -25.898438 36.742188 " fill-opacity="1" fill-rule="nonzero"/></g></g></g></g></g></g></g></g></g></g></svg>