<svg xmlns="http://www.w3.org/2000/svg" xmlns:xlink="http://www.w3.org/1999/xlink" width="378" zoomAndPan="magnify" viewBox="0 0 283.5 283.500005" height="378" preserveAspectRatio="xMidYMid meet" version="1.0"><defs><clipPath id="6881e9dd8e"><path d="M 0.671875 0.976562 L 249 0.976562 L 249 237 L 0.671875 237 Z M 0.671875 0.976562 " clip-rule="nonzero"/></clipPath><clipPath id="52a074ac29"><path d="M 162.785156 0.976562 L 224.691406 45.917969 L 248.292969 118.753906 L 224.691406 191.589844 L 162.785156 236.917969 L 86.175781 236.917969 L 24.273438 191.589844 L 0.671875 118.753906 L 24.273438 45.917969 L 86.175781 0.976562 Z M 162.785156 0.976562 " clip-rule="nonzero"/></clipPath><clipPath id="e7f9cf119e"><path d="M 0.671875 0.976562 L 248.453125 0.976562 L 248.453125 237 L 0.671875 237 Z M 0.671875 0.976562 " clip-rule="nonzero"/></clipPath><clipPath id="44686a32f3"><path d="M 162.785156 0.976562 L 224.691406 45.917969 L 248.292969 118.753906 L 224.691406 191.589844 L 162.785156 236.917969 L 86.175781 236.917969 L 24.273438 191.589844 L 0.671875 118.753906 L 24.273438 45.917969 L 86.175781 0.976562 Z M 162.785156 0.976562 " clip-rule="nonzero"/></clipPath><clipPath id="502e2d0c44"><rect x="0" width="249" y="0" height="237"/></clipPath><clipPath id="4ab1076224"><path d="M 2.707031 2.921875 L 246 2.921875 L 246 235 L 2.707031 235 Z M 2.707031 2.921875 " clip-rule="nonzero"/></clipPath><clipPath id="239b15fd62"><path d="M 161.96875 2.921875 L 222.785156 47.074219 L 245.972656 118.628906 L 222.785156 190.179688 L 161.96875 234.710938 L 86.710938 234.710938 L 25.890625 190.179688 L 2.707031 118.628906 L 25.890625 47.074219 L 86.710938 2.921875 Z M 161.96875 2.921875 " clip-rule="nonzero"/></clipPath><clipPath id="0384094d27"><path d="M 0.707031 0.921875 L 244 0.921875 L 244 232.859375 L 0.707031 232.859375 Z M 0.707031 0.921875 " clip-rule="nonzero"/></clipPath><clipPath id="8846453eea"><path d="M 159.96875 0.921875 L 220.785156 45.074219 L 243.972656 116.628906 L 220.785156 188.179688 L 159.96875 232.710938 L 84.710938 232.710938 L 23.890625 188.179688 L 0.707031 116.628906 L 23.890625 45.074219 L 84.710938 0.921875 Z M 159.96875 0.921875 " clip-rule="nonzero"/></clipPath><clipPath id="a1285f1641"><rect x="0" width="244" y="0" height="233"/></clipPath><clipPath id="c8719fa9a1"><rect x="0" width="250" y="0" height="238"/></clipPath></defs><g transform="matrix(1, 0, 0, 1, 17, 27)"><g clip-path="url(#c8719fa9a1)"><g clip-path="url(#6881e9dd8e)"><g clip-path="url(#52a074ac29)"><g transform="matrix(1, 0, 0, 1, 0.000000000000003553, 0.000000000000007105)"><g clip-path="url(#502e2d0c44)"><g clip-path="url(#e7f9cf119e)"><g clip-path="url(#44686a32f3)"><path fill="#7e7a7a" d="M 0.671875 0.976562 L 248.078125 0.976562 L 248.078125 237.308594 L 0.671875 237.308594 Z M 0.671875 0.976562 " fill-opacity="1" fill-rule="nonzero"/></g></g></g></g></g></g><g clip-path="url(#4ab1076224)"><g clip-path="url(#239b15fd62)"><g transform="matrix(1, 0, 0, 1, 2, 2)"><g clip-path="url(#a1285f1641)"><g clip-path="url(#0384094d27)"><g clip-path="url(#8846453eea)"><path fill="#07070b" d="M 0.707031 0.921875 L 243.757812 0.921875 L 243.757812 233.09375 L 0.707031 233.09375 Z M 0.707031 0.921875 " fill-opacity="1" fill-rule="nonzero"/></g></g></g></g></g></g></g></g></svg>