<svg xmlns="http://www.w3.org/2000/svg" xmlns:xlink="http://www.w3.org/1999/xlink" width="378" zoomAndPan="magnify" viewBox="0 0 283.5 283.500005" height="378" preserveAspectRatio="xMidYMid meet" version="1.0"><defs><clipPath id="3f51454530"><path d="M 0.6875 0.839844 L 249 0.839844 L 249 237 L 0.6875 237 Z M 0.6875 0.839844 " clip-rule="nonzero"/></clipPath><clipPath id="cfdbedb18a"><path d="M 162.804688 0.839844 L 224.710938 45.78125 L 248.3125 118.617188 L 224.710938 191.453125 L 162.804688 236.78125 L 86.195312 236.78125 L 24.289062 191.453125 L 0.6875 118.617188 L 24.289062 45.78125 L 86.195312 0.839844 Z M 162.804688 0.839844 " clip-rule="nonzero"/></clipPath><clipPath id="57214a85f5"><path d="M 0.6875 0.839844 L 248.453125 0.839844 L 248.453125 237 L 0.6875 237 Z M 0.6875 0.839844 " clip-rule="nonzero"/></clipPath><clipPath id="35b3da38c4"><path d="M 162.804688 0.839844 L 224.710938 45.78125 L 248.3125 118.617188 L 224.710938 191.453125 L 162.804688 236.78125 L 86.195312 236.78125 L 24.289062 191.453125 L 0.6875 118.617188 L 24.289062 45.78125 L 86.195312 0.839844 Z M 162.804688 0.839844 " clip-rule="nonzero"/></clipPath><clipPath id="39b9b1919c"><rect x="0" width="249" y="0" height="237"/></clipPath><clipPath id="37d71d9150"><path d="M 2.707031 2.917969 L 246 2.917969 L 246 235 L 2.707031 235 Z M 2.707031 2.917969 " clip-rule="nonzero"/></clipPath><clipPath id="e1a36f3bf1"><path d="M 161.96875 2.917969 L 222.785156 47.070312 L 245.972656 118.625 L 222.785156 190.175781 L 161.96875 234.707031 L 86.710938 234.707031 L 25.890625 190.175781 L 2.707031 118.625 L 25.890625 47.070312 L 86.710938 2.917969 Z M 161.96875 2.917969 " clip-rule="nonzero"/></clipPath><clipPath id="85d2e4221f"><path d="M 0.707031 0.917969 L 244 0.917969 L 244 232.859375 L 0.707031 232.859375 Z M 0.707031 0.917969 " clip-rule="nonzero"/></clipPath><clipPath id="141e4c2928"><path d="M 159.96875 0.917969 L 220.785156 45.070312 L 243.972656 116.625 L 220.785156 188.175781 L 159.96875 232.707031 L 84.710938 232.707031 L 23.890625 188.175781 L 0.707031 116.625 L 23.890625 45.070312 L 84.710938 0.917969 Z M 159.96875 0.917969 " clip-rule="nonzero"/></clipPath><clipPath id="ee67ac477a"><rect x="0" width="244" y="0" height="233"/></clipPath><clipPath id="c0a8319b70"><rect x="0" width="250" y="0" height="238"/></clipPath></defs><g transform="matrix(1, 0, 0, 1, 17, 27)"><g clip-path="url(#c0a8319b70)"><g clip-path="url(#3f51454530)"><g clip-path="url(#cfdbedb18a)"><g transform="matrix(1, 0, 0, 1, 0.000000000000003553, 0.000000000000007105)"><g clip-path="url(#39b9b1919c)"><g clip-path="url(#57214a85f5)"><g clip-path="url(#35b3da38c4)"><path fill="#992035" d="M 0.6875 0.839844 L 248.09375 0.839844 L 248.09375 237.167969 L 0.6875 237.167969 Z M 0.6875 0.839844 " fill-opacity="1" fill-rule="nonzero"/></g></g></g></g></g></g><g clip-path="url(#37d71d9150)"><g clip-path="url(#e1a36f3bf1)"><g transform="matrix(1, 0, 0, 1, 2, 2)"><g clip-path="url(#ee67ac477a)"><g clip-path="url(#85d2e4221f)"><g clip-path="url(#141e4c2928)"><path fill="#4a0b16" d="M 0.707031 0.917969 L 243.757812 0.917969 L 243.757812 233.089844 L 0.707031 233.089844 Z M 0.707031 0.917969 " fill-opacity="1" fill-rule="nonzero"/></g></g></g></g></g></g></g></g></svg>