<svg xmlns="http://www.w3.org/2000/svg" xmlns:xlink="http://www.w3.org/1999/xlink" width="378" zoomAndPan="magnify" viewBox="0 0 283.5 283.500005" height="378" preserveAspectRatio="xMidYMid meet" version="1.0"><defs><clipPath id="5f0a74ee77"><path d="M 19 19 L 264 19 L 264 270 L 19 270 Z M 19 19 " clip-rule="nonzero"/></clipPath><clipPath id="b11eba725d"><path d="M -6.898438 55.738281 L 238.289062 0.777344 L 290.597656 234.113281 L 45.40625 289.078125 Z M -6.898438 55.738281 " clip-rule="nonzero"/></clipPath><clipPath id="8574f5ed02"><path d="M 153.167969 19.855469 L 224.238281 50.527344 L 263.660156 117.21875 L 256.476562 194.355469 L 205.386719 252.8125 L 129.75 269.769531 L 58.59375 238.714844 L 19.167969 172.023438 L 26.351562 94.886719 L 77.527344 36.8125 Z M 153.167969 19.855469 " clip-rule="nonzero"/></clipPath><clipPath id="891236ed76"><path d="M 0.167969 0.84375 L 244.773438 0.84375 L 244.773438 250.960938 L 0.167969 250.960938 Z M 0.167969 0.84375 " clip-rule="nonzero"/></clipPath><clipPath id="70fbbd86a6"><path d="M -25.898438 36.738281 L 219.289062 -18.222656 L 271.597656 215.113281 L 26.40625 270.078125 Z M -25.898438 36.738281 " clip-rule="nonzero"/></clipPath><clipPath id="813db6e97b"><path d="M 134.167969 0.855469 L 205.238281 31.527344 L 244.660156 98.21875 L 237.476562 175.355469 L 186.386719 233.8125 L 110.75 250.769531 L 39.59375 219.714844 L 0.167969 153.023438 L 7.351562 75.886719 L 58.527344 17.8125 Z M 134.167969 0.855469 " clip-rule="nonzero"/></clipPath><clipPath id="edd9ef7454"><rect x="0" width="245" y="0" height="251"/></clipPath><clipPath id="152236b3fc"><rect x="0" width="283" y="0" height="282"/></clipPath></defs><g transform="matrix(1, 0, 0, 1, 0, 1)"><g clip-path="url(#152236b3fc)"><g clip-path="url(#5f0a74ee77)"><g clip-path="url(#b11eba725d)"><g clip-path="url(#8574f5ed02)"><g transform="matrix(1, 0, 0, 1, 19, 19)"><g clip-path="url(#edd9ef7454)"><g clip-path="url(#891236ed76)"><g clip-path="url(#70fbbd86a6)"><g clip-path="url(#813db6e97b)"><path fill="#751727" d="M -25.898438 36.738281 L 218.378906 -18.019531 L 270.683594 215.320312 L 26.40625 270.078125 Z M -25.898438 36.738281 " fill-opacity="1" fill-rule="nonzero"/></g></g></g></g></g></g></g></g></g></g></svg>