<?xml version="1.0" encoding="UTF-8" standalone="no"?>
<!DOCTYPE svg PUBLIC "-//W3C//DTD SVG 1.1//EN" "http://www.w3.org/Graphics/SVG/1.1/DTD/svg11.dtd">
<svg width="100%" height="100%" viewBox="0 0 308 408" version="1.1" xmlns="http://www.w3.org/2000/svg" xmlns:xlink="http://www.w3.org/1999/xlink" xml:space="preserve" xmlns:serif="http://www.serif.com/" style="fill-rule:evenodd;clip-rule:evenodd;stroke-linejoin:round;stroke-miterlimit:2;">
    <g transform="matrix(1,0,0,1,-87.387027,-51.242623)">
        <g transform="matrix(1,0,0,1,6,17.333333)">
            <path d="M348.176,188.605L382.138,284.923C402.761,343.409 372.021,407.635 313.535,428.258L295.159,434.737C236.673,455.36 172.447,424.62 151.824,366.134L117.862,269.816C97.239,211.33 127.979,147.104 186.465,126.481L204.841,120.002C263.327,99.379 327.553,130.119 348.176,188.605Z" style="fill:rgb(248,231,227);"/>
        </g>
        <g transform="matrix(1.546981,-0.673531,0.456326,1.0481,-234.217612,133.160846)">
            <path d="M233.333,71.786L264.333,161.119L202.333,161.119L233.333,71.786Z" style="fill:rgb(248,231,227);"/>
        </g>
        <g transform="matrix(0.77609,-1.037394,0.847898,0.634326,-154.568053,316.285917)">
            <path d="M233.333,71.786L264.333,161.119L202.333,161.119L233.333,71.786Z" style="fill:rgb(248,231,227);"/>
        </g>
        <g transform="matrix(1.256133,0.317226,-0.27287,1.080495,-0.908924,-100.341371)">
            <path d="M233.333,71.786L264.333,161.119L202.333,161.119L233.333,71.786Z" style="fill:rgb(248,231,227);"/>
        </g>
    </g>
</svg>
