<svg xmlns="http://www.w3.org/2000/svg" xmlns:xlink="http://www.w3.org/1999/xlink" width="378" zoomAndPan="magnify" viewBox="0 0 283.5 283.500005" height="378" preserveAspectRatio="xMidYMid meet" version="1.0"><defs><clipPath id="3284e00271"><path d="M 0.265625 0.761719 L 249 0.761719 L 249 237.898438 L 0.265625 237.898438 Z M 0.265625 0.761719 " clip-rule="nonzero"/></clipPath><clipPath id="447f441b6b"><path d="M 162.9375 0.761719 L 225.054688 45.855469 L 248.738281 118.941406 L 225.054688 192.027344 L 162.9375 237.511719 L 86.066406 237.511719 L 23.945312 192.027344 L 0.265625 118.941406 L 23.945312 45.855469 L 86.066406 0.761719 Z M 162.9375 0.761719 " clip-rule="nonzero"/></clipPath><clipPath id="abe7405b08"><path d="M 0.265625 0.761719 L 248.929688 0.761719 L 248.929688 237.734375 L 0.265625 237.734375 Z M 0.265625 0.761719 " clip-rule="nonzero"/></clipPath><clipPath id="68ac627e09"><path d="M 162.9375 0.761719 L 225.054688 45.855469 L 248.738281 118.941406 L 225.054688 192.027344 L 162.9375 237.511719 L 86.066406 237.511719 L 23.945312 192.027344 L 0.265625 118.941406 L 23.945312 45.855469 L 86.066406 0.761719 Z M 162.9375 0.761719 " clip-rule="nonzero"/></clipPath><clipPath id="b0886736be"><rect x="0" width="249" y="0" height="238"/></clipPath><clipPath id="8a9b1b18db"><path d="M 2.707031 3.246094 L 246 3.246094 L 246 235.414062 L 2.707031 235.414062 Z M 2.707031 3.246094 " clip-rule="nonzero"/></clipPath><clipPath id="b98372473e"><path d="M 161.96875 3.246094 L 222.785156 47.394531 L 245.972656 118.949219 L 222.785156 190.503906 L 161.96875 235.035156 L 86.710938 235.035156 L 25.890625 190.503906 L 2.707031 118.949219 L 25.890625 47.394531 L 86.710938 3.246094 Z M 161.96875 3.246094 " clip-rule="nonzero"/></clipPath><clipPath id="9a1e7552d5"><path d="M 0.707031 0.246094 L 244 0.246094 L 244 232.097656 L 0.707031 232.097656 Z M 0.707031 0.246094 " clip-rule="nonzero"/></clipPath><clipPath id="31bf7f0668"><path d="M 159.96875 0.246094 L 220.785156 44.394531 L 243.972656 115.949219 L 220.785156 187.503906 L 159.96875 232.035156 L 84.710938 232.035156 L 23.890625 187.503906 L 0.707031 115.949219 L 23.890625 44.394531 L 84.710938 0.246094 Z M 159.96875 0.246094 " clip-rule="nonzero"/></clipPath><clipPath id="f8e1615195"><rect x="0" width="244" y="0" height="233"/></clipPath><clipPath id="7d141b8e33"><rect x="0" width="250" y="0" height="238"/></clipPath></defs><g transform="matrix(1, 0, 0, 1, 17, 27)"><g clip-path="url(#7d141b8e33)"><g clip-path="url(#3284e00271)"><g clip-path="url(#447f441b6b)"><g transform="matrix(1, 0, 0, 1, 0.000000000000003553, 0.000000000000007105)"><g clip-path="url(#b0886736be)"><g clip-path="url(#abe7405b08)"><g clip-path="url(#68ac627e09)"><path fill="#e06396" d="M 0.265625 0.761719 L 248.519531 0.761719 L 248.519531 237.898438 L 0.265625 237.898438 Z M 0.265625 0.761719 " fill-opacity="1" fill-rule="nonzero"/></g></g></g></g></g></g><g clip-path="url(#8a9b1b18db)"><g clip-path="url(#b98372473e)"><g transform="matrix(1, 0, 0, 1, 2, 3)"><g clip-path="url(#f8e1615195)"><g clip-path="url(#9a1e7552d5)"><g clip-path="url(#31bf7f0668)"><path fill="#ffa5ca" d="M 0.707031 0.246094 L 243.757812 0.246094 L 243.757812 232.414062 L 0.707031 232.414062 Z M 0.707031 0.246094 " fill-opacity="1" fill-rule="nonzero"/></g></g></g></g></g></g></g></g></svg>