<svg xmlns="http://www.w3.org/2000/svg" xmlns:xlink="http://www.w3.org/1999/xlink" width="378" zoomAndPan="magnify" viewBox="0 0 283.5 283.500005" height="378" preserveAspectRatio="xMidYMid meet" version="1.0"><defs><clipPath id="5d50b2ea28"><path d="M 19 20 L 264 20 L 264 271 L 19 271 Z M 19 20 " clip-rule="nonzero"/></clipPath><clipPath id="65b0679763"><path d="M -6.898438 56.0625 L 238.289062 1.101562 L 290.597656 234.441406 L 45.40625 289.402344 Z M -6.898438 56.0625 " clip-rule="nonzero"/></clipPath><clipPath id="6e365a5cbf"><path d="M 153.167969 20.183594 L 224.238281 50.855469 L 263.660156 117.542969 L 256.476562 194.683594 L 205.386719 253.140625 L 129.75 270.09375 L 58.59375 239.039062 L 19.167969 172.351562 L 26.351562 95.210938 L 77.527344 37.136719 Z M 153.167969 20.183594 " clip-rule="nonzero"/></clipPath><clipPath id="4dd16b74f3"><path d="M 0.167969 0.0820312 L 244.773438 0.0820312 L 244.773438 250.203125 L 0.167969 250.203125 Z M 0.167969 0.0820312 " clip-rule="nonzero"/></clipPath><clipPath id="055199ebde"><path d="M -25.898438 36.0625 L 219.289062 -18.898438 L 271.597656 214.441406 L 26.40625 269.402344 Z M -25.898438 36.0625 " clip-rule="nonzero"/></clipPath><clipPath id="59de2af568"><path d="M 134.167969 0.183594 L 205.238281 30.855469 L 244.660156 97.542969 L 237.476562 174.683594 L 186.386719 233.140625 L 110.75 250.09375 L 39.59375 219.039062 L 0.167969 152.351562 L 7.351562 75.210938 L 58.527344 17.136719 Z M 134.167969 0.183594 " clip-rule="nonzero"/></clipPath><clipPath id="9d83ed2623"><rect x="0" width="245" y="0" height="251"/></clipPath><clipPath id="42520e479b"><rect x="0" width="283" y="0" height="282"/></clipPath></defs><g transform="matrix(1, 0, 0, 1, 0, 1)"><g clip-path="url(#42520e479b)"><g clip-path="url(#5d50b2ea28)"><g clip-path="url(#65b0679763)"><g clip-path="url(#6e365a5cbf)"><g transform="matrix(1, 0, 0, 1, 19, 20)"><g clip-path="url(#9d83ed2623)"><g clip-path="url(#4dd16b74f3)"><g clip-path="url(#055199ebde)"><g clip-path="url(#59de2af568)"><path fill="#db568c" d="M -25.898438 36.0625 L 218.378906 -18.695312 L 270.683594 214.644531 L 26.40625 269.402344 Z M -25.898438 36.0625 " fill-opacity="1" fill-rule="nonzero"/></g></g></g></g></g></g></g></g></g></g></svg>